<svg width="200" height="60" viewBox="0 0 200 60" fill="none" xmlns="http://www.w3.org/2000/svg">
  <!-- Background -->
  <rect width="200" height="60" rx="8" fill="#007bff"/>
  
  <!-- Water Drop Icon -->
  <g transform="translate(15, 12)">
    <path d="M18 36C27.9411 36 36 27.9411 36 18C36 8.05887 18 0 18 0S0 8.05887 0 18C0 27.9411 8.05887 36 18 36Z" fill="#ffffff" opacity="0.9"/>
    <circle cx="18" cy="18" r="8" fill="#007bff"/>
    <path d="M18 8C18 8 12 12 12 18C12 21.3137 14.6863 24 18 24C21.3137 24 24 21.3137 24 18C24 12 18 8 18 8Z" fill="#ffffff" opacity="0.7"/>
  </g>
  
  <!-- Building Icon -->
  <g transform="translate(55, 15)">
    <rect x="0" y="10" width="8" height="20" fill="#ffffff" opacity="0.8"/>
    <rect x="10" y="5" width="8" height="25" fill="#ffffff" opacity="0.9"/>
    <rect x="20" y="8" width="8" height="22" fill="#ffffff" opacity="0.7"/>
    <rect x="2" y="12" width="2" height="2" fill="#007bff"/>
    <rect x="5" y="12" width="2" height="2" fill="#007bff"/>
    <rect x="2" y="16" width="2" height="2" fill="#007bff"/>
    <rect x="5" y="16" width="2" height="2" fill="#007bff"/>
    <rect x="12" y="8" width="2" height="2" fill="#007bff"/>
    <rect x="15" y="8" width="2" height="2" fill="#007bff"/>
    <rect x="12" y="12" width="2" height="2" fill="#007bff"/>
    <rect x="15" y="12" width="2" height="2" fill="#007bff"/>
    <rect x="22" y="11" width="2" height="2" fill="#007bff"/>
    <rect x="25" y="11" width="2" height="2" fill="#007bff"/>
    <rect x="22" y="15" width="2" height="2" fill="#007bff"/>
    <rect x="25" y="15" width="2" height="2" fill="#007bff"/>
  </g>
  
  <!-- Company Name -->
  <text x="95" y="25" font-family="Arial, sans-serif" font-size="14" font-weight="bold" fill="#ffffff">
    АКВАБУДІНВЕСТ
  </text>
  
  <!-- Tagline -->
  <text x="95" y="40" font-family="Arial, sans-serif" font-size="10" fill="#ffffff" opacity="0.8">
    Будівництво • Сантехніка • Електрика
  </text>
  
  <!-- Decorative Elements -->
  <circle cx="185" cy="15" r="3" fill="#ffffff" opacity="0.3"/>
  <circle cx="185" cy="25" r="2" fill="#ffffff" opacity="0.4"/>
  <circle cx="185" cy="35" r="2.5" fill="#ffffff" opacity="0.2"/>
</svg>